<mxfile host="Electron" agent="Mozilla/5.0 (Macintosh; Intel Mac OS X 10_15_7) AppleWebKit/537.36 (KHTML, like Gecko) draw.io/28.0.4 Chrome/138.0.7204.97 Electron/37.2.1 Safari/537.36" version="28.0.4">
  <diagram id="cssLoadDiagram" name="CSS Load &amp; Cascade">
    <mxGraphModel dx="465616" dy="275102" grid="1" gridSize="10" guides="1" tooltips="1" connect="1" arrows="1" fold="1" page="1" pageScale="1" pageWidth="1920" pageHeight="1080" math="0" shadow="0">
      <root>
        <mxCell id="0" />
        <mxCell id="1" parent="0" />
        <mxCell id="20" parent="1" source="9" target="7" edge="1" />
        <mxCell id="21" parent="1" source="10" target="7" edge="1" />
        <mxCell id="22" parent="1" source="11" target="7" edge="1" />
        <mxCell id="23" parent="1" source="12" target="7" edge="1" />
        <mxCell id="NVMIuJIjwTBXAz2zRyh4-23" value="Cascade Order" style="whiteSpace=wrap;strokeWidth=2;" vertex="1" parent="1">
          <mxGeometry x="300" y="665" width="1376" height="208" as="geometry" />
        </mxCell>
        <mxCell id="NVMIuJIjwTBXAz2zRyh4-24" value="HTML Parser" style="whiteSpace=wrap;strokeWidth=2;" vertex="1" parent="1">
          <mxGeometry x="-183" y="330" width="148" height="54" as="geometry" />
        </mxCell>
        <mxCell id="NVMIuJIjwTBXAz2zRyh4-25" value="CSS Parser" style="whiteSpace=wrap;strokeWidth=2;" vertex="1" parent="1">
          <mxGeometry x="-250" y="457" width="134" height="54" as="geometry" />
        </mxCell>
        <mxCell id="NVMIuJIjwTBXAz2zRyh4-26" value="CSSOM" style="whiteSpace=wrap;strokeWidth=2;" vertex="1" parent="1">
          <mxGeometry x="-237" y="561" width="107" height="54" as="geometry" />
        </mxCell>
        <mxCell id="NVMIuJIjwTBXAz2zRyh4-27" value="DOM" style="whiteSpace=wrap;strokeWidth=2;" vertex="1" parent="1">
          <mxGeometry x="-79" y="561" width="92" height="54" as="geometry" />
        </mxCell>
        <mxCell id="NVMIuJIjwTBXAz2zRyh4-28" value="Render Tree" style="whiteSpace=wrap;strokeWidth=2;" vertex="1" parent="1">
          <mxGeometry x="-182" y="690" width="146" height="54" as="geometry" />
        </mxCell>
        <mxCell id="NVMIuJIjwTBXAz2zRyh4-29" value="Cascade Rules" style="whiteSpace=wrap;strokeWidth=2;" vertex="1" parent="1">
          <mxGeometry x="792" y="794" width="161" height="54" as="geometry" />
        </mxCell>
        <mxCell id="NVMIuJIjwTBXAz2zRyh4-30" value="Final Computed Style" style="whiteSpace=wrap;strokeWidth=2;" vertex="1" parent="1">
          <mxGeometry x="766" y="923" width="213" height="54" as="geometry" />
        </mxCell>
        <mxCell id="NVMIuJIjwTBXAz2zRyh4-31" value="User !important" style="whiteSpace=wrap;strokeWidth=2;" vertex="1" parent="1">
          <mxGeometry x="335" y="690" width="174" height="54" as="geometry" />
        </mxCell>
        <mxCell id="NVMIuJIjwTBXAz2zRyh4-32" value="Author !important" style="whiteSpace=wrap;strokeWidth=2;" vertex="1" parent="1">
          <mxGeometry x="559" y="690" width="190" height="54" as="geometry" />
        </mxCell>
        <mxCell id="NVMIuJIjwTBXAz2zRyh4-33" value="Inline Styles" style="whiteSpace=wrap;strokeWidth=2;" vertex="1" parent="1">
          <mxGeometry x="800" y="690" width="147" height="54" as="geometry" />
        </mxCell>
        <mxCell id="NVMIuJIjwTBXAz2zRyh4-34" value="Author normal rules" style="whiteSpace=wrap;strokeWidth=2;" vertex="1" parent="1">
          <mxGeometry x="996" y="690" width="203" height="54" as="geometry" />
        </mxCell>
        <mxCell id="NVMIuJIjwTBXAz2zRyh4-35" value="User normal rules" style="whiteSpace=wrap;strokeWidth=2;" vertex="1" parent="1">
          <mxGeometry x="1249" y="690" width="186" height="54" as="geometry" />
        </mxCell>
        <mxCell id="NVMIuJIjwTBXAz2zRyh4-36" value="UA stylesheet" style="whiteSpace=wrap;strokeWidth=2;" vertex="1" parent="1">
          <mxGeometry x="1485" y="690" width="157" height="54" as="geometry" />
        </mxCell>
        <mxCell id="NVMIuJIjwTBXAz2zRyh4-37" value="/" style="curved=1;startArrow=none;endArrow=block;exitX=0.29;exitY=1;entryX=0.5;entryY=0;rounded=0;" edge="1" parent="1" source="NVMIuJIjwTBXAz2zRyh4-24" target="NVMIuJIjwTBXAz2zRyh4-25">
          <mxGeometry relative="1" as="geometry">
            <Array as="points">
              <mxPoint x="-183" y="421" />
            </Array>
          </mxGeometry>
        </mxCell>
        <mxCell id="NVMIuJIjwTBXAz2zRyh4-38" value="" style="curved=1;startArrow=none;endArrow=block;exitX=0.5;exitY=1;entryX=0.5;entryY=0;rounded=0;" edge="1" parent="1" source="NVMIuJIjwTBXAz2zRyh4-25" target="NVMIuJIjwTBXAz2zRyh4-26">
          <mxGeometry relative="1" as="geometry">
            <Array as="points" />
          </mxGeometry>
        </mxCell>
        <mxCell id="NVMIuJIjwTBXAz2zRyh4-39" value="" style="curved=1;startArrow=none;endArrow=block;exitX=0.72;exitY=1;entryX=0.49;entryY=0;rounded=0;" edge="1" parent="1" source="NVMIuJIjwTBXAz2zRyh4-24" target="NVMIuJIjwTBXAz2zRyh4-27">
          <mxGeometry relative="1" as="geometry">
            <Array as="points">
              <mxPoint x="-33" y="421" />
            </Array>
          </mxGeometry>
        </mxCell>
        <mxCell id="NVMIuJIjwTBXAz2zRyh4-40" value="" style="curved=1;startArrow=none;endArrow=block;exitX=0.5;exitY=1;entryX=0.24;entryY=0;rounded=0;" edge="1" parent="1" source="NVMIuJIjwTBXAz2zRyh4-26" target="NVMIuJIjwTBXAz2zRyh4-28">
          <mxGeometry relative="1" as="geometry">
            <Array as="points">
              <mxPoint x="-183" y="665" />
            </Array>
          </mxGeometry>
        </mxCell>
        <mxCell id="NVMIuJIjwTBXAz2zRyh4-41" value="" style="curved=1;startArrow=none;endArrow=block;exitX=0.49;exitY=1;entryX=0.77;entryY=0;rounded=0;" edge="1" parent="1" source="NVMIuJIjwTBXAz2zRyh4-27" target="NVMIuJIjwTBXAz2zRyh4-28">
          <mxGeometry relative="1" as="geometry">
            <Array as="points">
              <mxPoint x="-33" y="665" />
            </Array>
          </mxGeometry>
        </mxCell>
        <mxCell id="NVMIuJIjwTBXAz2zRyh4-42" value="" style="curved=1;startArrow=none;endArrow=block;exitX=1;exitY=0.85;entryX=0;entryY=0.35;rounded=0;" edge="1" parent="1" source="NVMIuJIjwTBXAz2zRyh4-28" target="NVMIuJIjwTBXAz2zRyh4-29">
          <mxGeometry relative="1" as="geometry">
            <Array as="points">
              <mxPoint x="361" y="769" />
            </Array>
          </mxGeometry>
        </mxCell>
        <mxCell id="NVMIuJIjwTBXAz2zRyh4-43" value="" style="curved=1;startArrow=none;endArrow=block;exitX=0.5;exitY=1;entryX=0.5;entryY=0;rounded=0;" edge="1" parent="1" source="NVMIuJIjwTBXAz2zRyh4-29" target="NVMIuJIjwTBXAz2zRyh4-30">
          <mxGeometry relative="1" as="geometry">
            <Array as="points" />
          </mxGeometry>
        </mxCell>
        <mxCell id="NVMIuJIjwTBXAz2zRyh4-44" value="" style="curved=1;startArrow=none;endArrow=block;exitX=0.5;exitY=1;entryX=0;entryY=0.33;rounded=0;" edge="1" parent="1" source="NVMIuJIjwTBXAz2zRyh4-31" target="NVMIuJIjwTBXAz2zRyh4-29">
          <mxGeometry relative="1" as="geometry">
            <Array as="points">
              <mxPoint x="422" y="769" />
            </Array>
          </mxGeometry>
        </mxCell>
        <mxCell id="NVMIuJIjwTBXAz2zRyh4-45" value="" style="curved=1;startArrow=none;endArrow=block;exitX=0.5;exitY=1;entryX=0;entryY=0.15;rounded=0;" edge="1" parent="1" source="NVMIuJIjwTBXAz2zRyh4-32" target="NVMIuJIjwTBXAz2zRyh4-29">
          <mxGeometry relative="1" as="geometry">
            <Array as="points">
              <mxPoint x="654" y="769" />
            </Array>
          </mxGeometry>
        </mxCell>
        <mxCell id="NVMIuJIjwTBXAz2zRyh4-46" value="" style="curved=1;startArrow=none;endArrow=block;exitX=0.5;exitY=1;entryX=0.5;entryY=0;rounded=0;" edge="1" parent="1" source="NVMIuJIjwTBXAz2zRyh4-33" target="NVMIuJIjwTBXAz2zRyh4-29">
          <mxGeometry relative="1" as="geometry">
            <Array as="points" />
          </mxGeometry>
        </mxCell>
        <mxCell id="NVMIuJIjwTBXAz2zRyh4-47" value="" style="curved=1;startArrow=none;endArrow=block;exitX=0.5;exitY=1;entryX=1;entryY=0.16;rounded=0;" edge="1" parent="1" source="NVMIuJIjwTBXAz2zRyh4-34" target="NVMIuJIjwTBXAz2zRyh4-29">
          <mxGeometry relative="1" as="geometry">
            <Array as="points">
              <mxPoint x="1097" y="769" />
            </Array>
          </mxGeometry>
        </mxCell>
        <mxCell id="NVMIuJIjwTBXAz2zRyh4-48" value="" style="curved=1;startArrow=none;endArrow=block;exitX=0.5;exitY=1;entryX=1;entryY=0.33;rounded=0;" edge="1" parent="1" source="NVMIuJIjwTBXAz2zRyh4-35" target="NVMIuJIjwTBXAz2zRyh4-29">
          <mxGeometry relative="1" as="geometry">
            <Array as="points">
              <mxPoint x="1342" y="769" />
            </Array>
          </mxGeometry>
        </mxCell>
        <mxCell id="NVMIuJIjwTBXAz2zRyh4-49" value="" style="curved=1;startArrow=none;endArrow=block;exitX=0.5;exitY=1;entryX=1;entryY=0.39;rounded=0;" edge="1" parent="1" source="NVMIuJIjwTBXAz2zRyh4-36" target="NVMIuJIjwTBXAz2zRyh4-29">
          <mxGeometry relative="1" as="geometry">
            <Array as="points">
              <mxPoint x="1563" y="769" />
            </Array>
          </mxGeometry>
        </mxCell>
        <mxCell id="NVMIuJIjwTBXAz2zRyh4-50" value="Forma de carga" style="shape=swimlane;startSize=30;horizontal=1;" vertex="1" parent="1">
          <mxGeometry x="1260" width="300" height="80" as="geometry" />
        </mxCell>
        <mxCell id="NVMIuJIjwTBXAz2zRyh4-51" value="Ejemplo" style="shape=swimlane;startSize=30;horizontal=1;" vertex="1" parent="1">
          <mxGeometry x="1580" width="500" height="80" as="geometry" />
        </mxCell>
        <mxCell id="NVMIuJIjwTBXAz2zRyh4-52" value="Bloqueo render" style="shape=swimlane;startSize=30;horizontal=1;" vertex="1" parent="1">
          <mxGeometry x="2100" width="200" height="80" as="geometry" />
        </mxCell>
        <mxCell id="NVMIuJIjwTBXAz2zRyh4-53" value="Hoja externa (link)" style="rounded=1;whiteSpace=wrap;html=1;fillColor=#dae8fc;" vertex="1" parent="1">
          <mxGeometry x="1260" y="100" width="300" height="60" as="geometry" />
        </mxCell>
        <mxCell id="NVMIuJIjwTBXAz2zRyh4-54" value="&amp;lt;link rel=&#39;stylesheet&#39; href=&#39;/assets/styles.css&#39;&amp;gt;" style="rounded=1;whiteSpace=wrap;html=1;fillColor=#fff2cc;" vertex="1" parent="1">
          <mxGeometry x="1580" y="100" width="500" height="60" as="geometry" />
        </mxCell>
        <mxCell id="NVMIuJIjwTBXAz2zRyh4-55" value="Sí (bloquea)" style="rounded=1;whiteSpace=wrap;html=1;fillColor=#f8cecc;" vertex="1" parent="1">
          <mxGeometry x="2100" y="100" width="200" height="60" as="geometry" />
        </mxCell>
        <mxCell id="NVMIuJIjwTBXAz2zRyh4-56" value="Interno (style)" style="rounded=1;whiteSpace=wrap;html=1;fillColor=#dae8fc;" vertex="1" parent="1">
          <mxGeometry x="1260" y="180" width="300" height="60" as="geometry" />
        </mxCell>
        <mxCell id="NVMIuJIjwTBXAz2zRyh4-57" value="&amp;lt;style&amp;gt; body { color:red; } &amp;lt;/style&amp;gt;" style="rounded=1;whiteSpace=wrap;html=1;fillColor=#fff2cc;" vertex="1" parent="1">
          <mxGeometry x="1580" y="180" width="500" height="60" as="geometry" />
        </mxCell>
        <mxCell id="NVMIuJIjwTBXAz2zRyh4-58" value="No bloquea" style="rounded=1;whiteSpace=wrap;html=1;fillColor=#d5e8d4;" vertex="1" parent="1">
          <mxGeometry x="2100" y="180" width="200" height="60" as="geometry" />
        </mxCell>
        <mxCell id="NVMIuJIjwTBXAz2zRyh4-59" value="Inline (atributo style)" style="rounded=1;whiteSpace=wrap;html=1;fillColor=#dae8fc;" vertex="1" parent="1">
          <mxGeometry x="1260" y="260" width="300" height="60" as="geometry" />
        </mxCell>
        <mxCell id="NVMIuJIjwTBXAz2zRyh4-60" value="&amp;lt;div style=&#39;color:blue&#39;&amp;gt;" style="rounded=1;whiteSpace=wrap;html=1;fillColor=#fff2cc;" vertex="1" parent="1">
          <mxGeometry x="1580" y="260" width="500" height="60" as="geometry" />
        </mxCell>
        <mxCell id="NVMIuJIjwTBXAz2zRyh4-61" value="No bloquea" style="rounded=1;whiteSpace=wrap;html=1;fillColor=#d5e8d4;" vertex="1" parent="1">
          <mxGeometry x="2100" y="260" width="200" height="60" as="geometry" />
        </mxCell>
        <mxCell id="NVMIuJIjwTBXAz2zRyh4-62" value="@import en CSS" style="rounded=1;whiteSpace=wrap;html=1;fillColor=#dae8fc;" vertex="1" parent="1">
          <mxGeometry x="1260" y="340" width="300" height="60" as="geometry" />
        </mxCell>
        <mxCell id="NVMIuJIjwTBXAz2zRyh4-63" value="@import url(&#39;/assets/base.css&#39;);" style="rounded=1;whiteSpace=wrap;html=1;fillColor=#fff2cc;" vertex="1" parent="1">
          <mxGeometry x="1580" y="340" width="500" height="60" as="geometry" />
        </mxCell>
        <mxCell id="NVMIuJIjwTBXAz2zRyh4-64" value="Sí (bloquea + más lento)" style="rounded=1;whiteSpace=wrap;html=1;fillColor=#f8cecc;" vertex="1" parent="1">
          <mxGeometry x="2100" y="340" width="200" height="60" as="geometry" />
        </mxCell>
        <mxCell id="NVMIuJIjwTBXAz2zRyh4-65" value="Dinámico (JS)" style="rounded=1;whiteSpace=wrap;html=1;fillColor=#dae8fc;" vertex="1" parent="1">
          <mxGeometry x="1260" y="420" width="300" height="60" as="geometry" />
        </mxCell>
        <mxCell id="NVMIuJIjwTBXAz2zRyh4-66" value="document.createElement(&#39;link&#39;).href=&#39;/dynamic.css&#39;" style="rounded=1;whiteSpace=wrap;html=1;fillColor=#fff2cc;" vertex="1" parent="1">
          <mxGeometry x="1580" y="420" width="500" height="60" as="geometry" />
        </mxCell>
        <mxCell id="NVMIuJIjwTBXAz2zRyh4-67" value="Aplica al cargar" style="rounded=1;whiteSpace=wrap;html=1;fillColor=#d5e8d4;" vertex="1" parent="1">
          <mxGeometry x="2100" y="420" width="200" height="60" as="geometry" />
        </mxCell>
        <mxCell id="NVMIuJIjwTBXAz2zRyh4-119" value="" style="group" vertex="1" connectable="0" parent="1">
          <mxGeometry x="75" y="-529" width="920" height="540" as="geometry" />
        </mxCell>
        <mxCell id="NVMIuJIjwTBXAz2zRyh4-117" value="" style="rounded=0;whiteSpace=wrap;html=1;" vertex="1" parent="NVMIuJIjwTBXAz2zRyh4-119">
          <mxGeometry width="920" height="540" as="geometry" />
        </mxCell>
        <mxCell id="2" value="HTML Parser" style="rounded=1;whiteSpace=wrap;html=1;fillColor=#dae8fc;strokeColor=#6c8ebf;" parent="NVMIuJIjwTBXAz2zRyh4-119" vertex="1">
          <mxGeometry x="44" y="119" width="140" height="60" as="geometry" />
        </mxCell>
        <mxCell id="3" value="CSS Parser" style="rounded=1;whiteSpace=wrap;html=1;fillColor=#fff2cc;strokeColor=#d6b656;" parent="NVMIuJIjwTBXAz2zRyh4-119" vertex="1">
          <mxGeometry x="254" y="39" width="140" height="60" as="geometry" />
        </mxCell>
        <mxCell id="4" value="CSSOM" style="ellipse;whiteSpace=wrap;html=1;fillColor=#fff2cc;strokeColor=#d6b656;" parent="NVMIuJIjwTBXAz2zRyh4-119" vertex="1">
          <mxGeometry x="455" y="39" width="120" height="60" as="geometry" />
        </mxCell>
        <mxCell id="5" value="DOM" style="ellipse;whiteSpace=wrap;html=1;fillColor=#d5e8d4;strokeColor=#82b366;" parent="NVMIuJIjwTBXAz2zRyh4-119" vertex="1">
          <mxGeometry x="375" y="159" width="120" height="60" as="geometry" />
        </mxCell>
        <mxCell id="13" parent="NVMIuJIjwTBXAz2zRyh4-119" source="2" target="3" edge="1">
          <mxGeometry relative="1" as="geometry" />
        </mxCell>
        <mxCell id="14" parent="NVMIuJIjwTBXAz2zRyh4-119" source="3" target="4" edge="1">
          <mxGeometry relative="1" as="geometry" />
        </mxCell>
        <mxCell id="15" parent="NVMIuJIjwTBXAz2zRyh4-119" source="2" target="5" edge="1">
          <mxGeometry relative="1" as="geometry" />
        </mxCell>
        <mxCell id="17" style="entryX=0;entryY=0.5;entryDx=0;entryDy=0;" parent="NVMIuJIjwTBXAz2zRyh4-119" source="5" target="6" edge="1">
          <mxGeometry relative="1" as="geometry" />
        </mxCell>
        <mxCell id="NVMIuJIjwTBXAz2zRyh4-89" value="" style="group" vertex="1" connectable="0" parent="NVMIuJIjwTBXAz2zRyh4-119">
          <mxGeometry x="665" y="109" width="190" height="90" as="geometry" />
        </mxCell>
        <mxCell id="6" value="Render Tree" style="rounded=1;whiteSpace=wrap;html=1;fillColor=#f8cecc;strokeColor=#b85450;verticalAlign=bottom;spacingBottom=11;" parent="NVMIuJIjwTBXAz2zRyh4-89" vertex="1">
          <mxGeometry width="190" height="90" as="geometry" />
        </mxCell>
        <mxCell id="7" value="Cascade Rules" style="rounded=1;whiteSpace=wrap;html=1;fillColor=#fff2cc;strokeColor=#d6b656;" parent="NVMIuJIjwTBXAz2zRyh4-89" vertex="1">
          <mxGeometry x="12.797927461139896" y="10" width="157.51295336787564" height="40" as="geometry" />
        </mxCell>
        <mxCell id="16" style="entryX=0;entryY=0.5;entryDx=0;entryDy=0;" parent="NVMIuJIjwTBXAz2zRyh4-119" source="4" target="7" edge="1">
          <mxGeometry relative="1" as="geometry" />
        </mxCell>
        <mxCell id="NVMIuJIjwTBXAz2zRyh4-90" value="Final Computed Style" style="rounded=0;whiteSpace=wrap;html=1;verticalAlign=bottom;spacingRight=0;spacingBottom=12;fillColor=#d5e8d4;strokeColor=#82b366;" vertex="1" parent="NVMIuJIjwTBXAz2zRyh4-119">
          <mxGeometry x="621" y="259" width="264" height="240" as="geometry" />
        </mxCell>
        <mxCell id="NVMIuJIjwTBXAz2zRyh4-96" style="edgeStyle=orthogonalEdgeStyle;rounded=0;orthogonalLoop=1;jettySize=auto;html=1;exitX=0.25;exitY=1;exitDx=0;exitDy=0;entryX=0.25;entryY=0;entryDx=0;entryDy=0;" edge="1" parent="NVMIuJIjwTBXAz2zRyh4-119" source="NVMIuJIjwTBXAz2zRyh4-91" target="NVMIuJIjwTBXAz2zRyh4-92">
          <mxGeometry relative="1" as="geometry" />
        </mxCell>
        <mxCell id="NVMIuJIjwTBXAz2zRyh4-97" style="edgeStyle=orthogonalEdgeStyle;rounded=0;orthogonalLoop=1;jettySize=auto;html=1;exitX=0.75;exitY=1;exitDx=0;exitDy=0;entryX=0.75;entryY=0;entryDx=0;entryDy=0;" edge="1" parent="NVMIuJIjwTBXAz2zRyh4-119" source="NVMIuJIjwTBXAz2zRyh4-91" target="NVMIuJIjwTBXAz2zRyh4-92">
          <mxGeometry relative="1" as="geometry" />
        </mxCell>
        <mxCell id="NVMIuJIjwTBXAz2zRyh4-91" value="Layout/Reflow" style="whiteSpace=wrap;strokeWidth=1;fillColor=#fff2cc;strokeColor=#d6b656;" vertex="1" parent="NVMIuJIjwTBXAz2zRyh4-119">
          <mxGeometry x="665" y="294" width="190" height="54" as="geometry" />
        </mxCell>
        <mxCell id="NVMIuJIjwTBXAz2zRyh4-92" value="Paint" style="whiteSpace=wrap;strokeWidth=1;fillColor=#fff2cc;strokeColor=#d6b656;" vertex="1" parent="NVMIuJIjwTBXAz2zRyh4-119">
          <mxGeometry x="665" y="389" width="190" height="54" as="geometry" />
        </mxCell>
        <mxCell id="NVMIuJIjwTBXAz2zRyh4-93" style="edgeStyle=orthogonalEdgeStyle;rounded=0;orthogonalLoop=1;jettySize=auto;html=1;exitX=0.25;exitY=1;exitDx=0;exitDy=0;entryX=0.25;entryY=0;entryDx=0;entryDy=0;" edge="1" parent="NVMIuJIjwTBXAz2zRyh4-119" source="6" target="NVMIuJIjwTBXAz2zRyh4-91">
          <mxGeometry relative="1" as="geometry" />
        </mxCell>
        <mxCell id="NVMIuJIjwTBXAz2zRyh4-94" style="edgeStyle=orthogonalEdgeStyle;rounded=0;orthogonalLoop=1;jettySize=auto;html=1;exitX=0.75;exitY=1;exitDx=0;exitDy=0;entryX=0.75;entryY=0;entryDx=0;entryDy=0;" edge="1" parent="NVMIuJIjwTBXAz2zRyh4-119" source="6" target="NVMIuJIjwTBXAz2zRyh4-91">
          <mxGeometry relative="1" as="geometry" />
        </mxCell>
      </root>
    </mxGraphModel>
  </diagram>
</mxfile>
